<svg xmlns="http://www.w3.org/2000/svg" version="1.1" xmlns:xlink="http://www.w3.org/1999/xlink" xmlns:svgjs="http://svgjs.com/svgjs" width="323" height="132"><svg width="323" height="132" viewBox="0 0 323 132" fill="#89043d" xmlns="http://www.w3.org/2000/svg">
<path d="M8.10431 127.836L6.84994 123.604H5.24653L3.33771 129.995L1.40707 123.604H0L2.51964 131.239H4.13396L6.04278 124.869L7.5153 129.81L8.10431 127.836ZM9.58774 131.239L12.0856 123.604H10.6785L8.75877 130.017V130.006L8.38791 131.239H9.58774Z" fill="#89043d"></path>
<path d="M15.4487 123.604V125.709H16.7249V123.604H15.4487ZM24.0984 123.604H22.8331V126.701H15.4487V131.239H16.7249V127.847H22.8331V131.239H24.0984L24.0984 123.604Z" fill="#89043d"></path>
<path d="M27.4616 123.604V129.101H28.7268V127.836H34.1479V126.701H28.7268V124.738H34.137V123.604H27.4616ZM27.4616 130.094V131.239H34.137V130.094H27.4616Z" fill="#89043d"></path>
<path d="M45.2118 131.239L43.1721 128.261C43.772 128.163 44.2519 127.934 44.59 127.563C44.9718 127.17 45.1572 126.658 45.1572 126.003C45.1572 125.272 44.9282 124.683 44.4701 124.247C44.0119 123.822 43.3793 123.604 42.5831 123.604H37.5111V131.239H38.7763V124.738H39.2235L43.7393 131.239H45.2118ZM42.4085 127.192L40.7288 124.738H42.2777C43.3248 124.738 43.8592 125.163 43.8592 126.003C43.8592 126.789 43.3793 127.181 42.4085 127.192Z" fill="#89043d"></path>
<path d="M48.5749 123.604V129.101H49.8402V127.836H55.2613V126.701H49.8402V124.738H55.2503V123.604H48.5749ZM48.5749 130.094V131.239H55.2504V130.094H48.5749Z" fill="#89043d"></path>
<path d="M72.1534 124.662C71.379 123.953 70.3209 123.604 69.0011 123.604H64.1691V129.09H65.4344V124.738H69.0993C69.9501 124.738 70.6372 124.989 71.1608 125.491C71.6844 125.992 71.9462 126.658 71.9462 127.476C71.9462 128.239 71.7062 128.872 71.2153 129.363C70.7245 129.854 70.1028 130.094 69.3502 130.094H64.1691V131.239H69.2411C70.3755 131.239 71.3244 130.901 72.088 130.224C72.906 129.504 73.3205 128.599 73.3205 127.508C73.3205 126.319 72.9278 125.371 72.1534 124.662Z" fill="#89043d"></path>
<path d="M84.3844 131.239L82.3447 128.261C82.9446 128.163 83.4246 127.934 83.7627 127.563C84.1444 127.17 84.3299 126.658 84.3299 126.003C84.3299 125.272 84.1008 124.683 83.6427 124.247C83.1846 123.822 82.5519 123.604 81.7557 123.604H76.6837V131.239H77.9489V124.738H78.3962L82.9119 131.239H84.3844ZM81.5812 127.192L79.9014 124.738H81.4503C82.4974 124.738 83.0319 125.163 83.0319 126.003C83.0319 126.789 82.5519 127.181 81.5812 127.192Z" fill="#89043d"></path>
<path d="M87.7476 123.604V129.101H89.0128V127.836H94.4339V126.701H89.0128V124.738H94.423V123.604H87.7476ZM87.7476 130.094V131.239H94.423V130.094H87.7476Z" fill="#89043d"></path>
<path d="M99.3023 128.381L97.797 131.239H99.1823L100.066 129.526H105.203L106.087 131.239H107.472L103.425 123.604H101.844L99.8258 127.399H101.2L102.64 124.694L104.592 128.392L99.3023 128.381Z" fill="#89043d"></path>
<path d="M112.1 131.239V123.604H110.835V131.239H112.1ZM121.328 123.604H119.747L116.082 128.217L113.093 124.454V126.21L116.071 129.974L120.03 125H120.063V131.239H121.328V123.604Z" fill="#89043d"></path>
<path d="M132.49 127.443C132.032 127.094 131.323 126.865 130.363 126.734C130.025 126.69 129.327 126.636 128.269 126.57C127.56 126.527 127.037 126.45 126.72 126.33C126.284 126.178 126.055 125.938 126.055 125.6C126.055 125.272 126.262 125.022 126.677 124.836C127.091 124.651 127.691 124.563 128.476 124.563C129.654 124.563 130.8 124.847 131.934 125.425L132.468 124.422C131.4 123.767 130.102 123.44 128.574 123.44C127.342 123.44 126.393 123.647 125.728 124.062C125.051 124.476 124.713 125.043 124.713 125.763C124.713 126.461 125.008 126.963 125.608 127.258C126.109 127.508 126.993 127.672 128.258 127.759C129.676 127.858 130.549 127.945 130.876 128.021C131.487 128.185 131.803 128.512 131.803 128.992C131.803 129.406 131.563 129.734 131.094 129.974C130.603 130.224 129.905 130.344 129.011 130.344C127.636 130.344 126.349 129.984 125.15 129.254L124.67 130.334C125.739 131.086 127.178 131.457 129 131.457C130.352 131.457 131.378 131.239 132.098 130.792C132.818 130.344 133.177 129.723 133.177 128.916C133.177 128.283 132.948 127.792 132.49 127.443Z" fill="#89043d"></path>
<path d="M149.612 124.738V123.604H141.911V125.698H143.176V124.738L149.612 124.738ZM147.648 126.679H141.911V131.239H143.176V127.814H147.648V126.679Z" fill="#89043d"></path>
<path d="M154.24 123.615H152.975V131.25H154.24V123.615Z" fill="#89043d"></path>
<path d="M157.603 123.604V131.239H158.868V123.604H157.603ZM166.275 123.604H165.009V129.864L159.861 124.378V126.047L164.693 131.239H166.275V123.604Z" fill="#89043d"></path>
<path d="M177.622 124.662C176.848 123.953 175.79 123.604 174.47 123.604H169.638V129.09H170.903V124.738H174.568C175.419 124.738 176.106 124.989 176.629 125.491C177.153 125.992 177.415 126.658 177.415 127.476C177.415 128.239 177.175 128.872 176.684 129.363C176.193 129.854 175.571 130.094 174.819 130.094H169.638V131.239H174.71C175.844 131.239 176.793 130.901 177.557 130.224C178.375 129.504 178.789 128.599 178.789 127.508C178.789 126.319 178.397 125.371 177.622 124.662Z" fill="#89043d"></path>
<path d="M196.259 123.604H187.697V124.749H196.259V123.604ZM192.605 125.785H191.34V131.239H192.605V125.785Z" fill="#89043d"></path>
<path d="M199.623 123.604V125.709H200.899V123.604H199.623ZM208.272 123.604H207.007V126.701H199.623V131.239H200.899V127.847H207.007V131.239H208.272L208.272 123.604Z" fill="#89043d"></path>
<path d="M211.635 123.604V129.101H212.901V127.836H218.322V126.701H212.901V124.738H218.311V123.604H211.635ZM211.635 130.094V131.239H218.311V130.094H211.635Z" fill="#89043d"></path>
<path d="M222.95 123.615H221.685V131.25H222.95V123.615Z" fill="#89043d"></path>
<path d="M234.014 131.239L231.974 128.261C232.574 128.163 233.054 127.934 233.392 127.563C233.774 127.17 233.96 126.658 233.96 126.003C233.96 125.272 233.73 124.683 233.272 124.247C232.814 123.822 232.182 123.604 231.385 123.604H226.313V131.239H227.579V124.738H228.026L232.542 131.239H234.014ZM231.211 127.192L229.531 124.738H231.08C232.127 124.738 232.662 125.163 232.662 126.003C232.662 126.789 232.182 127.181 231.211 127.192Z" fill="#89043d"></path>
<path d="M244.427 128.381L242.922 131.239H244.307L245.191 129.526H250.328L251.212 131.239H252.597L248.55 123.604H246.969L244.951 127.399H246.325L247.765 124.694L249.717 128.392L244.427 128.381Z" fill="#89043d"></path>
<path d="M263.944 124.662C263.17 123.953 262.112 123.604 260.792 123.604H255.96V129.09H257.225V124.738H260.89C261.741 124.738 262.428 124.989 262.952 125.491C263.475 125.992 263.737 126.658 263.737 127.476C263.737 128.239 263.497 128.872 263.006 129.363C262.515 129.854 261.894 130.094 261.141 130.094H255.96V131.239H261.032C262.166 131.239 263.115 130.901 263.879 130.224C264.697 129.504 265.111 128.599 265.111 127.508C265.111 126.319 264.719 125.371 263.944 124.662Z" fill="#89043d"></path>
<path d="M276.459 124.662C275.685 123.953 274.626 123.604 273.307 123.604H268.475V129.09H269.74V124.738H273.405C274.256 124.738 274.943 124.989 275.466 125.491C275.99 125.992 276.252 126.658 276.252 127.476C276.252 128.239 276.012 128.872 275.521 129.363C275.03 129.854 274.408 130.094 273.656 130.094H268.475V131.239H273.547C274.681 131.239 275.63 130.901 276.393 130.224C277.212 129.504 277.626 128.599 277.626 127.508C277.626 126.319 277.233 125.371 276.459 124.662Z" fill="#89043d"></path>
<path d="M288.69 131.239L286.65 128.261C287.25 128.163 287.73 127.934 288.068 127.563C288.45 127.17 288.635 126.658 288.635 126.003C288.635 125.272 288.406 124.683 287.948 124.247C287.49 123.822 286.857 123.604 286.061 123.604H280.989V131.239H282.254V124.738H282.702L287.217 131.239H288.69ZM285.887 127.192L284.207 124.738H285.756C286.803 124.738 287.337 125.163 287.337 126.003C287.337 126.789 286.857 127.181 285.887 127.192Z" fill="#89043d"></path>
<path d="M292.053 123.604V129.101H293.318V127.836H298.739V126.701H293.318V124.738H298.729V123.604H292.053ZM292.053 130.094V131.239H298.729V130.094H292.053Z" fill="#89043d"></path>
<path d="M309.901 127.443C309.443 127.094 308.734 126.865 307.775 126.734C307.436 126.69 306.738 126.636 305.68 126.57C304.971 126.527 304.448 126.45 304.131 126.33C303.695 126.178 303.466 125.938 303.466 125.6C303.466 125.272 303.673 125.022 304.088 124.836C304.502 124.651 305.102 124.563 305.888 124.563C307.066 124.563 308.211 124.847 309.345 125.425L309.88 124.422C308.811 123.767 307.513 123.44 305.986 123.44C304.753 123.44 303.804 123.647 303.139 124.062C302.463 124.476 302.124 125.043 302.124 125.763C302.124 126.461 302.419 126.963 303.019 127.258C303.521 127.508 304.404 127.672 305.669 127.759C307.087 127.858 307.96 127.945 308.287 128.021C308.898 128.185 309.214 128.512 309.214 128.992C309.214 129.406 308.974 129.734 308.505 129.974C308.014 130.224 307.316 130.344 306.422 130.344C305.048 130.344 303.761 129.984 302.561 129.254L302.081 130.334C303.15 131.086 304.59 131.457 306.411 131.457C307.764 131.457 308.789 131.239 309.509 130.792C310.229 130.344 310.589 129.723 310.589 128.916C310.589 128.283 310.36 127.792 309.901 127.443Z" fill="#89043d"></path>
<path d="M321.576 127.443C321.118 127.094 320.409 126.865 319.449 126.734C319.111 126.69 318.413 126.636 317.355 126.57C316.646 126.527 316.122 126.45 315.806 126.33C315.37 126.178 315.141 125.938 315.141 125.6C315.141 125.272 315.348 125.022 315.762 124.836C316.177 124.651 316.777 124.563 317.562 124.563C318.74 124.563 319.886 124.847 321.02 125.425L321.554 124.422C320.485 123.767 319.187 123.44 317.66 123.44C316.428 123.44 315.479 123.647 314.814 124.062C314.137 124.476 313.799 125.043 313.799 125.763C313.799 126.461 314.094 126.963 314.694 127.258C315.195 127.508 316.079 127.672 317.344 127.759C318.762 127.858 319.635 127.945 319.962 128.021C320.573 128.185 320.889 128.512 320.889 128.992C320.889 129.406 320.649 129.734 320.18 129.974C319.689 130.224 318.991 130.344 318.097 130.344C316.722 130.344 315.435 129.984 314.235 129.254L313.755 130.334C314.824 131.086 316.264 131.457 318.086 131.457C319.438 131.457 320.464 131.239 321.184 130.792C321.903 130.344 322.263 129.723 322.263 128.916C322.263 128.283 322.034 127.792 321.576 127.443Z" fill="#89043d"></path>
<path d="M83.7692 0C72.1958 12.5378 60.6224 25.2134 49.1869 37.889C37.6135 25.3512 26.1779 12.5378 14.4667 0H7.62939e-06V14.4667H8.26671L49.1869 59.2447L83.7692 21.2178V73.4358C83.7692 86.1114 94.6537 98.0981 107.605 98.0981H185.587C199.227 98.0981 210.25 87.0759 210.25 73.4358V24.6623C210.25 11.0223 199.227 0 185.587 0H136.538C122.898 0 112.014 11.0223 112.014 24.6623V56.9024H126.343V24.5245C126.343 19.0134 131.027 14.4667 136.538 14.4667H185.587C191.236 14.4667 195.783 19.0134 195.783 24.6623V73.4358C195.783 79.0847 191.236 83.6314 185.587 83.6314H108.018C102.645 83.6314 98.2359 78.6714 98.2359 73.4358V0H83.7692ZM7.62939e-06 42.4357V98.0981H14.4667V42.4357H7.62939e-06ZM161.063 56.2135C165.058 56.2135 168.227 52.9068 168.227 48.9113C168.227 44.9157 165.058 41.7468 161.063 41.7468C157.205 41.7468 153.761 44.9157 153.761 49.1868C153.761 52.2179 155.689 54.0091 157.894 56.2135H161.063Z" fill="#89043d"></path>
<path d="M307.934 70.4047C307.934 74.538 306.832 83.6314 297.463 83.6314H248.828C243.179 83.6314 238.494 78.9469 238.494 73.298H224.027C224.027 87.0758 235.05 98.0981 248.828 98.0981H297.463C311.654 98.0981 321.574 87.2136 322.126 72.1958C322.263 71.3691 322.263 69.1647 322.263 68.0625C322.263 60.4847 319.646 54.4224 315.099 49.6002C319.646 44.9157 322.263 38.8535 322.263 30.8623C322.263 29.7601 322.263 27.1423 322.126 26.1779C321.574 10.8845 311.517 0 297.463 0H248.69C234.774 0 224.027 11.16 224.027 24.9379H238.494C238.494 19.289 242.903 14.4667 248.69 14.4667H297.463C307.383 14.4667 307.934 24.5245 307.934 27.8312C307.934 37.889 303.112 42.4357 297.601 42.4357H238.494V56.9024H297.601C303.112 56.9024 307.934 61.4491 307.934 70.4047Z" fill="#89043d"></path>
</svg><style>@media (prefers-color-scheme: light) { :root { filter: contrast(1) brightness(1); } }
</style></svg>